<svg width="42" height="42" viewBox="0 0 42 42" fill="none" xmlns="http://www.w3.org/2000/svg">
<path opacity="0.2" d="M6.5625 14.4375H35.4375V7.875C35.4375 7.5269 35.2992 7.19306 35.0531 6.94692C34.8069 6.70078 34.4731 6.5625 34.125 6.5625H7.875C7.5269 6.5625 7.19306 6.70078 6.94692 6.94692C6.70078 7.19306 6.5625 7.5269 6.5625 7.875V14.4375Z" fill="#FFE600"/>
<path d="M34.125 6.5625H7.875C7.15013 6.5625 6.5625 7.15013 6.5625 7.875V34.125C6.5625 34.8499 7.15013 35.4375 7.875 35.4375H34.125C34.8499 35.4375 35.4375 34.8499 35.4375 34.125V7.875C35.4375 7.15013 34.8499 6.5625 34.125 6.5625Z" stroke="#FFE600" stroke-width="2" stroke-linecap="round" stroke-linejoin="round"/>
<path d="M28.875 3.9375V9.1875" stroke="#FFE600" stroke-width="2" stroke-linecap="round" stroke-linejoin="round"/>
<path d="M13.125 3.9375V9.1875" stroke="#FFE600" stroke-width="2" stroke-linecap="round" stroke-linejoin="round"/>
<path d="M6.5625 14.4375H35.4375" stroke="#FFE600" stroke-width="2" stroke-linecap="round" stroke-linejoin="round"/>
<path d="M26.9062 21L19.2445 28.2188L15.0938 24.2812" stroke="#FFE600" stroke-width="2" stroke-linecap="round" stroke-linejoin="round"/>
</svg>
