<svg width="33" height="32" viewBox="0 0 33 32" fill="none" xmlns="http://www.w3.org/2000/svg">
<path opacity="0.2" d="M16.1667 28C22.7941 28 28.1667 22.6274 28.1667 16C28.1667 9.37258 22.7941 4 16.1667 4C9.53927 4 4.16669 9.37258 4.16669 16C4.16669 22.6274 9.53927 28 16.1667 28Z" fill="white"/>
<path d="M16.1667 28C22.7941 28 28.1667 22.6274 28.1667 16C28.1667 9.37258 22.7941 4 16.1667 4C9.53927 4 4.16669 9.37258 4.16669 16C4.16669 22.6274 9.53927 28 16.1667 28Z" stroke="white" stroke-width="2" stroke-linecap="round" stroke-linejoin="round"/>
<path d="M21.1667 11H19.1667C18.7723 10.9984 18.3814 11.0748 18.0167 11.225C17.652 11.3752 17.3206 11.5961 17.0417 11.875C16.7628 12.1539 16.5419 12.4853 16.3917 12.85C16.2415 13.2147 16.165 13.6056 16.1667 14V28" stroke="white" stroke-width="2" stroke-linecap="round" stroke-linejoin="round"/>
<path d="M12.1667 18H20.1667" stroke="white" stroke-width="2" stroke-linecap="round" stroke-linejoin="round"/>
</svg>
