<svg width="33" height="32" viewBox="0 0 33 32" fill="none" xmlns="http://www.w3.org/2000/svg">
<rect width="33" height="32" fill="#F5F5F5"/>
<g id="home 1921">
<rect width="1920" height="7470" transform="translate(-648 -7182)" fill="white"/>
<g id="Frame 46">
<rect width="1920" height="576" transform="translate(-648 -288)" fill="#333333"/>
<g id="Frame 48">
<g id="Frame 70">
<g id="Frame 71">
<g id="Frame 69">
<g id="FacebookLogo">
<path id="Vector" opacity="0.2" d="M16.167 28C22.7944 28 28.167 22.6274 28.167 16C28.167 9.37258 22.7944 4 16.167 4C9.53958 4 4.16699 9.37258 4.16699 16C4.16699 22.6274 9.53958 28 16.167 28Z" fill="white"/>
<path id="Vector_2" d="M16.167 28C22.7944 28 28.167 22.6274 28.167 16C28.167 9.37258 22.7944 4 16.167 4C9.53958 4 4.16699 9.37258 4.16699 16C4.16699 22.6274 9.53958 28 16.167 28Z" stroke="white" stroke-width="2" stroke-linecap="round" stroke-linejoin="round"/>
<path id="Vector_3" d="M21.167 11H19.167C18.7726 10.9984 18.3817 11.0748 18.017 11.225C17.6523 11.3752 17.3209 11.5961 17.042 11.875C16.7631 12.1539 16.5422 12.4853 16.392 12.85C16.2418 13.2147 16.1654 13.6056 16.167 14V28" stroke="white" stroke-width="2" stroke-linecap="round" stroke-linejoin="round"/>
<path id="Vector_4" d="M12.167 18H20.167" stroke="white" stroke-width="2" stroke-linecap="round" stroke-linejoin="round"/>
</g>
</g>
</g>
</g>
</g>
</g>
</g>
</svg>
