<svg width="33" height="32" viewBox="0 0 33 32" fill="none" xmlns="http://www.w3.org/2000/svg">
<path opacity="0.2" d="M21.667 4.5H10.667C9.07569 4.5 7.54957 5.13214 6.42435 6.25736C5.29913 7.38258 4.66699 8.9087 4.66699 10.5V21.5C4.66699 23.0913 5.29913 24.6174 6.42435 25.7426C7.54957 26.8679 9.07569 27.5 10.667 27.5H21.667C23.2583 27.5 24.7844 26.8679 25.9096 25.7426C27.0349 24.6174 27.667 23.0913 27.667 21.5V10.5C27.667 8.9087 27.0349 7.38258 25.9096 6.25736C24.7844 5.13214 23.2583 4.5 21.667 4.5ZM16.167 21C15.1781 21 14.2114 20.7068 13.3891 20.1573C12.5669 19.6079 11.926 18.827 11.5476 17.9134C11.1692 16.9998 11.0701 15.9945 11.2631 15.0245C11.456 14.0546 11.9322 13.1637 12.6315 12.4645C13.3307 11.7652 14.2216 11.289 15.1915 11.0961C16.1614 10.9031 17.1668 11.0022 18.0804 11.3806C18.994 11.759 19.7749 12.3999 20.3243 13.2221C20.8737 14.0444 21.167 15.0111 21.167 16C21.167 17.3261 20.6402 18.5979 19.7025 19.5355C18.7648 20.4732 17.4931 21 16.167 21Z" fill="white"/>
<path d="M16.167 21C18.9284 21 21.167 18.7614 21.167 16C21.167 13.2386 18.9284 11 16.167 11C13.4056 11 11.167 13.2386 11.167 16C11.167 18.7614 13.4056 21 16.167 21Z" stroke="white" stroke-width="2" stroke-miterlimit="10"/>
<path d="M21.667 4.5H10.667C7.35328 4.5 4.66699 7.18629 4.66699 10.5V21.5C4.66699 24.8137 7.35328 27.5 10.667 27.5H21.667C24.9807 27.5 27.667 24.8137 27.667 21.5V10.5C27.667 7.18629 24.9807 4.5 21.667 4.5Z" stroke="white" stroke-width="2" stroke-linecap="round" stroke-linejoin="round"/>
<path d="M22.667 11C23.4954 11 24.167 10.3284 24.167 9.5C24.167 8.67157 23.4954 8 22.667 8C21.8386 8 21.167 8.67157 21.167 9.5C21.167 10.3284 21.8386 11 22.667 11Z" fill="white"/>
</svg>
