<svg width="33" height="32" viewBox="0 0 33 32" fill="none" xmlns="http://www.w3.org/2000/svg">
<path opacity="0.2" d="M16.5 3C13.8478 3 11.3043 4.05357 9.42893 5.92893C7.55357 7.8043 6.5 10.3478 6.5 13C6.5 22 16.5 29 16.5 29C16.5 29 26.5 22 26.5 13C26.5 10.3478 25.4464 7.8043 23.5711 5.92893C21.6957 4.05357 19.1522 3 16.5 3ZM16.5 17C15.7089 17 14.9355 16.7654 14.2777 16.3259C13.6199 15.8864 13.1072 15.2616 12.8045 14.5307C12.5017 13.7998 12.4225 12.9956 12.5769 12.2196C12.7312 11.4437 13.1122 10.731 13.6716 10.1716C14.231 9.61216 14.9437 9.2312 15.7196 9.07686C16.4956 8.92252 17.2998 9.00173 18.0307 9.30448C18.7616 9.60723 19.3864 10.1199 19.8259 10.7777C20.2654 11.4355 20.5 12.2089 20.5 13C20.5 14.0609 20.0786 15.0783 19.3284 15.8284C18.5783 16.5786 17.5609 17 16.5 17Z" fill="white"/>
<path d="M16.5 17C18.7091 17 20.5 15.2091 20.5 13C20.5 10.7909 18.7091 9 16.5 9C14.2909 9 12.5 10.7909 12.5 13C12.5 15.2091 14.2909 17 16.5 17Z" stroke="white" stroke-width="2" stroke-linecap="round" stroke-linejoin="round"/>
<path d="M26.5 13C26.5 22 16.5 29 16.5 29C16.5 29 6.5 22 6.5 13C6.5 10.3478 7.55357 7.8043 9.42893 5.92893C11.3043 4.05357 13.8478 3 16.5 3C19.1522 3 21.6957 4.05357 23.5711 5.92893C25.4464 7.8043 26.5 10.3478 26.5 13V13Z" stroke="white" stroke-width="2" stroke-linecap="round" stroke-linejoin="round"/>
</svg>
