<svg width="25" height="24" viewBox="0 0 25 24" fill="none" xmlns="http://www.w3.org/2000/svg">
<path opacity="0.2" d="M12.5 2.25C10.5109 2.25 8.60322 3.04018 7.1967 4.4467C5.79018 5.85322 5 7.76088 5 9.75C5 16.5 12.5 21.75 12.5 21.75C12.5 21.75 20 16.5 20 9.75C20 7.76088 19.2098 5.85322 17.8033 4.4467C16.3968 3.04018 14.4891 2.25 12.5 2.25ZM12.5 12.75C11.9067 12.75 11.3266 12.5741 10.8333 12.2444C10.3399 11.9148 9.95542 11.4462 9.72836 10.8981C9.5013 10.3499 9.44189 9.74667 9.55764 9.16473C9.6734 8.58279 9.95912 8.04824 10.3787 7.62868C10.7982 7.20912 11.3328 6.9234 11.9147 6.80764C12.4967 6.69189 13.0999 6.7513 13.6481 6.97836C14.1962 7.20542 14.6648 7.58994 14.9944 8.08329C15.3241 8.57664 15.5 9.15666 15.5 9.75C15.5 10.5456 15.1839 11.3087 14.6213 11.8713C14.0587 12.4339 13.2956 12.75 12.5 12.75Z" fill="#333333"/>
<path d="M12.5 12.75C14.1569 12.75 15.5 11.4069 15.5 9.75C15.5 8.09315 14.1569 6.75 12.5 6.75C10.8431 6.75 9.5 8.09315 9.5 9.75C9.5 11.4069 10.8431 12.75 12.5 12.75Z" stroke="#333333" stroke-linecap="round" stroke-linejoin="round"/>
<path d="M20 9.75C20 16.5 12.5 21.75 12.5 21.75C12.5 21.75 5 16.5 5 9.75C5 7.76088 5.79018 5.85322 7.1967 4.4467C8.60322 3.04018 10.5109 2.25 12.5 2.25C14.4891 2.25 16.3968 3.04018 17.8033 4.4467C19.2098 5.85322 20 7.76088 20 9.75V9.75Z" stroke="#333333" stroke-linecap="round" stroke-linejoin="round"/>
</svg>
