<svg width="42" height="42" viewBox="0 0 42 42" fill="none" xmlns="http://www.w3.org/2000/svg">
<path opacity="0.2" d="M6.5625 18.818V9.1875C6.5625 8.8394 6.70078 8.50556 6.94692 8.25942C7.19306 8.01328 7.5269 7.875 7.875 7.875H34.125C34.4731 7.875 34.8069 8.01328 35.0531 8.25942C35.2992 8.50556 35.4375 8.8394 35.4375 9.1875V18.818C35.4375 32.5992 23.7398 37.1602 21.4102 37.9312C21.1455 38.0292 20.8545 38.0292 20.5898 37.9312C18.2602 37.1602 6.5625 32.5992 6.5625 18.818Z" fill="#FFE600"/>
<path d="M6.5625 18.818V9.1875C6.5625 8.8394 6.70078 8.50556 6.94692 8.25942C7.19306 8.01328 7.5269 7.875 7.875 7.875H34.125C34.4731 7.875 34.8069 8.01328 35.0531 8.25942C35.2992 8.50556 35.4375 8.8394 35.4375 9.1875V18.818C35.4375 32.5992 23.7398 37.1602 21.4102 37.9312C21.1455 38.0292 20.8545 38.0292 20.5898 37.9312C18.2602 37.1602 6.5625 32.5992 6.5625 18.818Z" stroke="#FFE600" stroke-width="2" stroke-linecap="round" stroke-linejoin="round"/>
<path d="M28.2188 17.0625L18.5883 26.25L13.7812 21.6562" stroke="#FFE600" stroke-width="2" stroke-linecap="round" stroke-linejoin="round"/>
</svg>
