<svg width="60" height="60" viewBox="0 0 60 60" fill="none" xmlns="http://www.w3.org/2000/svg">
<path opacity="0.2" d="M26.2504 31.875L22.0785 12.4219C21.9038 11.6016 21.9147 10.7526 22.1104 9.93712C22.3062 9.12161 22.6818 8.36019 23.2098 7.70859C23.7378 7.057 24.4049 6.53172 25.1621 6.17121C25.9194 5.81069 26.7476 5.62407 27.5863 5.625H32.4144C33.2531 5.62407 34.0814 5.81069 34.8386 6.17121C35.5959 6.53172 36.2629 7.057 36.7909 7.70859C37.3189 8.36019 37.6946 9.12161 37.8903 9.93712C38.0861 10.7526 38.097 11.6016 37.9223 12.4219L33.7504 31.875H26.2504Z" fill="#333333"/>
<path d="M9.375 52.5H50.625" stroke="#333333" stroke-width="2" stroke-linecap="round" stroke-linejoin="round"/>
<path d="M26.2504 31.875L22.0785 12.4219C21.9038 11.6016 21.9147 10.7526 22.1104 9.93712C22.3062 9.12161 22.6818 8.36019 23.2098 7.70859C23.7378 7.057 24.4049 6.53172 25.1621 6.17121C25.9194 5.81069 26.7476 5.62407 27.5863 5.625H32.4144C33.2531 5.62407 34.0814 5.81069 34.8386 6.17121C35.5959 6.53172 36.2629 7.057 36.7909 7.70859C37.3189 8.36019 37.6946 9.12161 37.8903 9.93712C38.0861 10.7526 38.097 11.6016 37.9223 12.4219L33.7504 31.875" stroke="#333333" stroke-width="2" stroke-linecap="round" stroke-linejoin="round"/>
<path d="M48.75 31.875H11.25C10.2145 31.875 9.375 32.7145 9.375 33.75V43.125C9.375 44.1605 10.2145 45 11.25 45H48.75C49.7855 45 50.625 44.1605 50.625 43.125V33.75C50.625 32.7145 49.7855 31.875 48.75 31.875Z" stroke="#333333" stroke-width="2" stroke-linecap="round" stroke-linejoin="round"/>
</svg>
