<svg width="60" height="60" viewBox="0 0 60 60" fill="none" xmlns="http://www.w3.org/2000/svg">
<path opacity="0.2" d="M48.75 16.875H11.25V43.125H48.75V16.875Z" fill="#333333"/>
<path d="M11.25 43.125V16.875" stroke="#333333" stroke-width="2" stroke-linecap="round" stroke-linejoin="round"/>
<path d="M48.75 16.875V43.125" stroke="#333333" stroke-width="2" stroke-linecap="round" stroke-linejoin="round"/>
<path d="M22.5 30V33.75" stroke="#333333" stroke-width="2" stroke-linecap="round" stroke-linejoin="round"/>
<path d="M30 28.125V33.75" stroke="#333333" stroke-width="2" stroke-linecap="round" stroke-linejoin="round"/>
<path d="M37.5 26.25V33.75" stroke="#333333" stroke-width="2" stroke-linecap="round" stroke-linejoin="round"/>
<path d="M50.625 9.375H9.375C8.33947 9.375 7.5 10.2145 7.5 11.25V15C7.5 16.0355 8.33947 16.875 9.375 16.875H50.625C51.6605 16.875 52.5 16.0355 52.5 15V11.25C52.5 10.2145 51.6605 9.375 50.625 9.375Z" stroke="#333333" stroke-width="2" stroke-linecap="round" stroke-linejoin="round"/>
<path d="M30 43.125V50.625" stroke="#333333" stroke-width="2" stroke-linecap="round" stroke-linejoin="round"/>
<path d="M30 58.125C32.0711 58.125 33.75 56.4461 33.75 54.375C33.75 52.3039 32.0711 50.625 30 50.625C27.9289 50.625 26.25 52.3039 26.25 54.375C26.25 56.4461 27.9289 58.125 30 58.125Z" stroke="#333333" stroke-width="2" stroke-linecap="round" stroke-linejoin="round"/>
<path d="M7.5 43.125H52.5" stroke="#333333" stroke-width="2" stroke-linecap="round" stroke-linejoin="round"/>
</svg>
