<svg width="60" height="60" viewBox="0 0 60 60" fill="none" xmlns="http://www.w3.org/2000/svg">
<path opacity="0.2" d="M41.25 7.50005V30L33.75 24.375L26.25 30V7.50005H16.875C16.1355 7.49695 15.4026 7.64033 14.7188 7.92191C14.0349 8.2035 13.4136 8.61771 12.8907 9.14066C12.3677 9.66361 11.9535 10.2849 11.6719 10.9688C11.3903 11.6526 11.2469 12.3855 11.25 13.125V50.625C11.2469 49.8855 11.3903 49.1526 11.6719 48.4688C11.9535 47.7849 12.3677 47.1636 12.8907 46.6407C13.4136 46.1177 14.0349 45.7035 14.7188 45.4219C15.4026 45.1403 16.1355 44.9969 16.875 45H48.75V7.50005H41.25Z" fill="#333333"/>
<path d="M11.25 50.625V52.5H45" stroke="#333333" stroke-width="2" stroke-linecap="round" stroke-linejoin="round"/>
<path d="M41.25 7.5V30L33.75 24.375L26.25 30V7.5" stroke="#333333" stroke-width="2" stroke-linecap="round" stroke-linejoin="round"/>
<path d="M11.25 50.6251C11.2469 49.8855 11.3903 49.1527 11.6719 48.4688C11.9535 47.7849 12.3677 47.1636 12.8907 46.6407C13.4136 46.1177 14.0349 45.7035 14.7188 45.4219C15.4026 45.1403 16.1355 44.9969 16.875 45.0001H48.7501V7.50005H16.875C16.1355 7.49695 15.4026 7.64033 14.7188 7.92191C14.0349 8.2035 13.4136 8.61771 12.8907 9.14066C12.3677 9.66361 11.9535 10.2849 11.6719 10.9688C11.3903 11.6526 11.2469 12.3855 11.25 13.125V50.6251Z" stroke="#333333" stroke-width="2" stroke-linecap="round" stroke-linejoin="round"/>
</svg>
