<svg width="60" height="60" viewBox="0 0 60 60" fill="none" xmlns="http://www.w3.org/2000/svg">
<path opacity="0.2" d="M29.9997 7.5C25.447 7.49867 21.0009 8.87851 17.2489 11.4573C13.4969 14.036 10.6154 17.6923 8.98514 21.9432C7.35488 26.194 7.05253 30.8395 8.11803 35.2658C9.18353 39.6921 11.5668 43.691 14.9529 46.7344C16.3638 43.9559 18.5165 41.6224 21.1724 39.9925C23.8283 38.3626 26.8836 37.4999 29.9997 37.5C28.1455 37.5 26.333 36.9502 24.7913 35.92C23.2496 34.8899 22.0479 33.4257 21.3384 31.7127C20.6288 29.9996 20.4431 28.1146 20.8049 26.296C21.1666 24.4775 22.0595 22.807 23.3706 21.4959C24.6817 20.1848 26.3522 19.2919 28.1708 18.9301C29.9893 18.5684 31.8743 18.7541 33.5874 19.4636C35.3005 20.1732 36.7646 21.3748 37.7948 22.9165C38.8249 24.4582 39.3747 26.2708 39.3747 28.125C39.3747 30.6114 38.387 32.996 36.6289 34.7541C34.8707 36.5123 32.4861 37.5 29.9997 37.5C33.1159 37.4999 36.1712 38.3626 38.8271 39.9925C41.483 41.6224 43.6357 43.9559 45.0466 46.7344C48.4327 43.691 50.816 39.6921 51.8815 35.2658C52.947 30.8395 52.6446 26.194 51.0143 21.9432C49.3841 17.6923 46.5026 14.036 42.7506 11.4573C38.9986 8.87851 34.5525 7.49867 29.9997 7.5Z" fill="#333333"/>
<path d="M30 37.5C35.1777 37.5 39.375 33.3027 39.375 28.125C39.375 22.9473 35.1777 18.75 30 18.75C24.8223 18.75 20.625 22.9473 20.625 28.125C20.625 33.3027 24.8223 37.5 30 37.5Z" stroke="#333333" stroke-width="2" stroke-linecap="round" stroke-linejoin="round"/>
<path d="M14.9531 46.7348C16.3639 43.9561 18.5165 41.6223 21.1724 39.9921C23.8283 38.3619 26.8837 37.499 30 37.499C33.1163 37.499 36.1717 38.3619 38.8276 39.9921C41.4835 41.6223 43.6361 43.9561 45.0469 46.7348" stroke="#333333" stroke-width="2" stroke-linecap="round" stroke-linejoin="round"/>
<path d="M46.875 30L52.5 35.625L58.125 30" stroke="#333333" stroke-width="2" stroke-linecap="round" stroke-linejoin="round"/>
<path d="M1.875 30L7.5 24.375L13.125 30" stroke="#333333" stroke-width="2" stroke-linecap="round" stroke-linejoin="round"/>
<path d="M52.5 35.6252V30.0002C52.5053 25.1389 50.9361 20.4067 48.0271 16.5118C45.1182 12.617 41.0261 9.76897 36.3633 8.39415C31.7005 7.01932 26.7179 7.19162 22.1612 8.88524C17.6045 10.5789 13.7189 13.7027 11.0859 17.7892" stroke="#333333" stroke-width="2" stroke-linecap="round" stroke-linejoin="round"/>
<path d="M7.50001 24.375V30C7.49471 34.8612 9.06396 39.5935 11.9729 43.4883C14.8818 47.3832 18.9739 50.2312 23.6367 51.606C28.2995 52.9808 33.2822 52.8085 37.8388 51.1149C42.3955 49.4213 46.2811 46.2974 48.9141 42.2109" stroke="#333333" stroke-width="2" stroke-linecap="round" stroke-linejoin="round"/>
</svg>
