<svg width="42" height="42" viewBox="0 0 42 42" fill="none" xmlns="http://www.w3.org/2000/svg">
<path opacity="0.2" d="M36.75 10.5L21 15.75L5.25 10.5L21 5.25L36.75 10.5Z" fill="#FFE600"/>
<path d="M5.25 10.5V23.625" stroke="#FFE600" stroke-width="2" stroke-linecap="round" stroke-linejoin="round"/>
<path d="M8.89258 35.4375C10.2058 33.4233 12.0009 31.7685 14.1151 30.623C16.2293 29.4776 18.5958 28.8777 21.0004 28.8777C23.4049 28.8777 25.7715 29.4776 27.8857 30.623C29.9999 31.7685 31.7949 33.4233 33.1082 35.4375" stroke="#FFE600" stroke-width="2" stroke-linecap="round" stroke-linejoin="round"/>
<path d="M36.75 10.5L21 15.75L5.25 10.5L21 5.25L36.75 10.5Z" stroke="#FFE600" stroke-width="2" stroke-linecap="round" stroke-linejoin="round"/>
<path d="M27.7758 13.486C28.9797 14.8007 29.7752 16.4374 30.0652 18.1964C30.3551 19.9553 30.1271 21.7607 29.4088 23.3923C28.6906 25.024 27.5131 26.4114 26.02 27.3855C24.527 28.3596 22.7827 28.8782 21 28.8782C19.2173 28.8782 17.4731 28.3596 15.98 27.3855C14.4869 26.4114 13.3094 25.024 12.5912 23.3923C11.8729 21.7607 11.6449 19.9553 11.9348 18.1964C12.2248 16.4374 13.0203 14.8007 14.2242 13.486" stroke="#FFE600" stroke-width="2" stroke-linecap="round" stroke-linejoin="round"/>
</svg>
