<svg width="33" height="32" viewBox="0 0 33 32" fill="none" xmlns="http://www.w3.org/2000/svg">
<path opacity="0.2" d="M11.1671 16.8633L28.1796 4.57578C28.059 4.51883 27.928 4.48723 27.7947 4.48293C27.6614 4.47863 27.5286 4.50172 27.4046 4.55079L4.32962 13.6133C3.40462 13.9758 3.52962 15.3258 4.50462 15.5258L11.1671 16.8633Z" fill="white"/>
<path opacity="0.2" d="M16.7795 21.8008L12.8795 25.7008C12.7404 25.8421 12.5624 25.9388 12.3681 25.9787C12.1739 26.0186 11.9722 25.9998 11.7886 25.9248C11.6051 25.8497 11.448 25.7218 11.3373 25.5573C11.2266 25.3928 11.1673 25.1991 11.167 25.0008V16.8633L16.7795 21.8008Z" fill="white"/>
<path d="M11.1671 16.8625L22.4046 26.75C22.5345 26.865 22.692 26.9442 22.8618 26.9799C23.0315 27.0156 23.2076 27.0065 23.3728 26.9535C23.5379 26.9006 23.6865 26.8056 23.8039 26.6779C23.9212 26.5501 24.0033 26.3941 24.0421 26.225L28.7421 5.70004C28.7815 5.52327 28.7722 5.33913 28.7151 5.16726C28.658 4.99538 28.5554 4.84224 28.418 4.72417C28.2807 4.6061 28.1139 4.52753 27.9354 4.49686C27.7569 4.4662 27.5735 4.48457 27.4046 4.55004L4.32962 13.6125C3.40462 13.975 3.52962 15.325 4.50462 15.525L11.1671 16.8625Z" stroke="white" stroke-width="2" stroke-linecap="round" stroke-linejoin="round"/>
<path d="M11.167 16.8617L28.1795 4.57422" stroke="white" stroke-width="2" stroke-linecap="round" stroke-linejoin="round"/>
<path d="M16.7795 21.8008L12.8795 25.7008C12.7404 25.8421 12.5624 25.9388 12.3681 25.9787C12.1739 26.0186 11.9722 25.9998 11.7886 25.9248C11.6051 25.8497 11.448 25.7218 11.3373 25.5573C11.2266 25.3928 11.1673 25.1991 11.167 25.0008V16.8633" stroke="white" stroke-width="2" stroke-linecap="round" stroke-linejoin="round"/>
</svg>
