<svg width="159" height="36" viewBox="0 0 159 36" fill="none" xmlns="http://www.w3.org/2000/svg">
<path d="M62.5642 0L58.2422 17.7647H63.2505L59.7252 36L70.8298 12.9513H66.2731L71.1117 0H62.5642Z" fill="#FFCC00"/>
<path d="M4.02773 8.61352V17.2887H5.93131C7.21294 17.2887 7.90898 16.703 7.90898 14.8731V11.0291C7.90898 9.19891 7.21294 8.61352 5.93131 8.61352H4.02773ZM11.9367 11.2856V14.6166C11.9367 18.7163 9.95938 20.9491 5.93131 20.9491H4.02773V30.5759H0V4.95273H5.93131C9.95938 4.95273 11.9367 7.18556 11.9367 11.2856Z" fill="#1D1D1B"/>
<path d="M18.7012 8.61352V16.4835H20.2755C21.7767 16.4835 22.6926 15.824 22.6926 13.7747V11.2486C22.6926 9.41873 22.07 8.61352 20.6418 8.61352H18.7012ZM23.0957 30.5759C22.8758 29.9172 22.729 29.5142 22.729 27.4278V23.4014C22.729 21.0222 21.9235 20.1436 20.093 20.1436H18.7012V30.5759H14.6738V4.95273H20.752C24.9258 4.95273 26.7203 6.89337 26.7203 10.8464V12.8597C26.7203 15.4948 25.8781 17.1786 24.0837 18.0205V18.0939C26.098 18.9361 26.757 20.8394 26.757 23.5112V27.4645C26.757 28.709 26.7934 29.6243 27.1965 30.5759H23.0957Z" fill="#1D1D1B"/>
<path d="M33.9613 24.6827C33.9613 26.513 34.7671 27.2084 36.0488 27.2084C37.3301 27.2084 38.1359 26.513 38.1359 24.6827V10.8465C38.1359 9.01623 37.3301 8.32076 36.0488 8.32076C34.7671 8.32076 33.9613 9.01623 33.9613 10.8465V24.6827ZM29.9336 11.1026C29.9336 7.00321 32.0938 4.66064 36.0488 4.66064C40.0027 4.66064 42.1629 7.00321 42.1629 11.1026V24.4262C42.1629 28.5263 40.0027 30.8689 36.0488 30.8689C32.0938 30.8689 29.9336 28.5263 29.9336 24.4262V11.1026Z" fill="#1D1D1B"/>
<path d="M48.7924 16.3369H53.9916V19.9977H48.7924V30.5758H44.7646V4.95294H55.4201V8.61373H48.7924V16.3369Z" fill="#1D1D1B"/>
<path d="M87.602 12.0178H87.529V30.5759H83.9043V4.95306H88.9574L93.0218 20.29H93.0949V4.95306H96.6832V30.5759H92.546L87.602 12.0178Z" fill="#1D1D1B"/>
<path d="M104.473 15.7514H110.002V19.4116H104.473V26.9159H111.43V30.576H100.445V4.95285H111.43V8.61364H104.473V15.7514Z" fill="#1D1D1B"/>
<path d="M118.818 8.61352V16.4835H120.392C121.893 16.4835 122.809 15.824 122.809 13.7747V11.2486C122.809 9.41873 122.187 8.61352 120.758 8.61352H118.818ZM123.212 30.5759C122.992 29.9172 122.846 29.5142 122.846 27.4278V23.4014C122.846 21.0222 122.04 20.1436 120.21 20.1436H118.818V30.5759H114.79V4.95273H120.869C125.042 4.95273 126.837 6.89337 126.837 10.8464V12.8597C126.837 15.4948 125.995 17.1786 124.2 18.0205V18.0939C126.215 18.9361 126.874 20.8394 126.874 23.5112V27.4645C126.874 28.709 126.91 29.6243 127.313 30.5759H123.212Z" fill="#1D1D1B"/>
<path d="M137.288 16.3004H142.928V24.4262C142.928 28.5263 140.877 30.8689 136.923 30.8689C132.968 30.8689 130.918 28.5263 130.918 24.4262V11.1026C130.918 7.00321 132.968 4.6603 136.923 4.6603C140.877 4.6603 142.928 7.00321 142.928 11.1026V13.5916H139.12V10.8465C139.12 9.01623 138.314 8.32076 137.032 8.32076C135.751 8.32076 134.945 9.01623 134.945 10.8465V24.6827C134.945 26.513 135.751 27.1717 137.032 27.1717C138.314 27.1717 139.12 26.513 139.12 24.6827V19.9606H137.288V16.3004Z" fill="#1D1D1B"/>
<path d="M149.936 19.8437L144.765 4.95306H149.009L151.882 14.1537L154.728 4.95306H159L153.8 19.8437V30.5759H149.936V19.8437Z" fill="#1D1D1B"/>
<path d="M65.5861 26.1623L63.46 30.5758H79.3695V26.1623H65.5861Z" fill="#1D1D1B"/>
<path d="M70.59 15.7762L68.4639 20.1897H79.3695V15.7762H70.59Z" fill="#1D1D1B"/>
<path d="M70.3394 4.95309L68.6904 9.36658H79.3694V4.95309H70.3394Z" fill="#1D1D1B"/>
</svg>
