<svg width="725" height="414" viewBox="0 0 725 414" fill="none" xmlns="http://www.w3.org/2000/svg">
<g opacity="0.7">
<path fill-rule="evenodd" clip-rule="evenodd" d="M339.303 1.79433C271.322 9.5288 209.369 53.6582 178.504 116.331C166.535 140.634 160.551 164.186 157.633 198.473L156.651 210.025L126.725 230.694C110.267 242.062 88.0979 257.428 77.4615 264.841C66.8233 272.255 45.3293 287.189 29.6946 298.03C14.06 308.869 0.879648 318.376 0.408271 319.156C-0.0648813 319.936 3.78302 318.973 8.96018 317.02C43.4102 304.015 145.62 267.879 146.236 268.487C146.65 268.894 145.425 277.86 143.513 288.415C141.601 298.967 140.226 307.774 140.457 307.983C140.688 308.193 148.801 305.208 158.488 301.353C168.175 297.498 176.208 294.516 176.338 294.728C176.467 294.939 179.551 300.416 183.192 306.897C210.114 354.85 255.802 391.034 307.908 405.672C331.398 412.272 349.864 414.215 376.051 412.841C468.365 407.996 544.113 344.34 565.931 253.268C570.537 234.044 571.894 196.923 568.775 175.421C566.455 159.416 566.468 159.283 570.541 156.316C575.596 152.634 620.367 121.753 678.936 81.5519C703.22 64.8842 723.836 50.5642 724.749 49.7309C726.509 48.127 699.31 57.4106 623.457 84.3036C584.843 97.9928 576.983 100.268 577.04 97.7405C577.078 96.0671 578.523 87.0935 580.253 77.7996C581.982 68.5056 583.188 60.683 582.932 60.4169C582.677 60.149 571.141 64.4401 557.298 69.9507C543.454 75.4612 531.451 79.9745 530.624 79.9813C529.796 79.9881 520.799 71.7533 510.631 61.6793C474.193 25.5916 432.842 5.98833 383.542 1.43267C362.225 -0.536732 359.593 -0.515216 339.303 1.79433ZM408.402 31.0366C427.539 35.9987 446.888 44.4561 462.89 54.8483C476.389 63.6145 502.262 86.7188 502.289 90.0291C502.302 91.5528 478.843 101.838 475.493 101.775C474.868 101.764 473.841 99.7741 473.212 97.355C471.659 91.3735 464.945 88.3701 448.088 86.1138C426.374 83.2099 426.162 83.1317 425.494 77.9032C425.164 75.3129 422.709 71.6086 420.026 69.6467C415.166 66.0971 415.089 66.0959 386.475 69.6386C363.328 72.5043 356.676 73.9618 352.01 77.1843C347.991 79.9594 340.167 82.1599 326.35 84.4041C309.683 87.1103 305.581 88.4261 300.958 92.547C297.368 95.7448 291.726 98.2259 284.804 99.65C252.894 106.218 249.121 109.339 251.208 127.437C252.422 137.957 252.212 138.815 246.23 147.863C239.283 158.372 238.678 163.927 242.071 186.11C243.532 195.675 243.451 198.721 241.704 199.851C238.476 201.936 217.213 209.127 216.461 208.385C216.114 208.043 217.685 198.227 219.954 186.572C222.223 174.917 223.799 165.105 223.457 164.769C223.116 164.433 214.377 169.971 204.036 177.078C193.695 184.183 184.906 189.657 184.503 189.243C183.027 187.724 187.012 166.756 191.408 152.908C211.365 90.0506 264.569 42.0464 328.628 29.0975C347.318 25.3181 390.392 26.3655 408.402 31.0366ZM409.125 103.619C408.437 114.125 407.451 129.089 406.933 136.872L405.994 151.02L399.824 152.33C396.431 153.049 388.474 153.943 382.142 154.316L370.632 154.995L366.386 123.135C364.051 105.613 362.398 91.0146 362.711 90.696C363.525 89.8688 397.184 85.0842 404.362 84.7751L410.375 84.5164L409.125 103.619ZM556.608 106.795C555.074 114.899 553.429 122.929 552.953 124.644C551.628 129.412 555.092 128.626 583.405 117.735C597.674 112.245 609.869 107.762 610.504 107.771C611.14 107.78 592.585 120.65 569.27 136.372C545.954 152.093 526.63 164.294 526.325 163.488C526.022 162.683 526.968 155.425 528.429 147.361C529.89 139.296 530.695 132.313 530.217 131.843C529.739 131.371 516.781 135.935 501.423 141.982C482.107 149.588 473.164 152.341 472.41 150.911C471.315 148.836 473.017 123.503 474.324 122.415C477.224 119.995 558.356 89.4269 558.811 90.5811C559.134 91.3955 558.142 98.6924 556.608 106.795ZM353.332 97.859C353.424 98.1033 354.964 111.297 356.752 127.18L360.006 156.06L354.617 157.497C347.861 159.296 346.82 164.643 351.699 172.494C359.958 185.788 362.815 191.837 362.85 196.102C362.887 200.617 362.851 200.626 350.891 199.626C327.027 197.63 328.361 198.311 325.952 186.876C323.153 173.578 313.988 116.14 313.575 109.306L313.256 104.003L330.991 100.913C350.129 97.5815 353.072 97.1791 353.332 97.859ZM442.248 102.336C460.535 104.62 459.422 102.304 455.261 129.417L452.462 147.664L441.84 148.861C435.997 149.519 428.034 150.085 424.141 150.117L417.066 150.175L418.113 143.506C418.688 139.839 419.101 128.647 419.03 118.634C418.881 97.5469 416.615 99.1354 442.248 102.336ZM307.134 135.533C308.47 147.489 310.036 163.962 310.613 172.141L311.663 187.012L297.694 185.833C290.009 185.184 283.635 184.534 283.529 184.39C281.564 181.724 265.896 122.852 266.882 121.848C267.897 120.818 296.641 114.191 301.03 113.976C304.44 113.81 304.883 115.372 307.134 135.533ZM267.773 188.248C267.353 189.474 265.866 190.484 264.47 190.495C261.453 190.52 258.463 168.486 260.577 161.812C261.63 158.491 262.559 160.498 265.217 171.841C267.042 179.64 268.195 187.025 267.773 188.248ZM457.385 160.058C464.887 184.161 474.917 219.047 474.893 220.951C474.486 254.284 381.065 319.048 384.614 317.851C393.142 314.976 402.252 313.226 410.924 310.823C414.312 309.882 414.74 311.197 417.71 331.659C419.454 343.672 421.363 357.492 421.953 362.371C422.542 367.25 423.46 372.638 423.991 374.343C425.19 378.192 380.577 387.351 374.549 387.824C354.163 389.424 355.446 392.139 361.492 360.201C363.807 347.972 365.703 336.768 365.702 335.302C365.702 333.837 362.893 337.782 359.461 344.07C353.825 354.393 350.972 367.581 350.232 386.719C350.024 391.955 293.473 372.922 289.24 370.915C290.829 351.529 292.311 332.137 293.65 312.732L305.726 323.465C312.369 329.37 317.786 333.538 317.765 332.728C317.746 331.917 311.159 321.718 303.13 310.061C296.575 300.545 274.687 274.219 274.595 262.976C274.565 259.335 275.958 257.429 280.303 255.156C307.331 241.015 380.26 200.417 410.439 205.938C424.281 208.468 431.247 208.947 429.542 207.251C421.557 199.309 383.008 186.306 373.31 188.392C371.232 188.839 362.034 168.383 363.376 166.998C364.519 165.816 434.396 157.942 449.883 157.251C454.701 157.034 456.674 157.772 457.385 160.058ZM503.595 181.688C501.385 193.567 499.822 203.527 500.122 203.823C500.421 204.119 510.037 197.855 521.488 189.904C532.939 181.953 542.855 175.986 543.527 176.645C544.196 177.304 544.813 189.965 544.899 204.778C545.025 226.555 544.323 234.739 541.232 247.508C532.031 285.54 512.622 317.616 482.826 344.033C471.536 354.045 447.998 369.227 446.324 367.578C445.06 366.335 440.49 319.87 440.224 305.552L440.028 295.059L464.35 264.506C477.728 247.7 489.684 232.018 490.921 229.654C494.033 223.702 492.265 212.734 484.61 190.498C481.095 180.286 478.784 171.368 479.479 170.682C480.994 169.183 502.943 160.429 505.684 160.231C506.942 160.139 506.213 167.622 503.595 181.688ZM317.101 206.284C320.752 210.108 323.548 211.325 328.597 211.283C332.595 211.251 334.596 211.872 333.593 212.832C332.673 213.713 318.774 219.498 302.707 225.686C286.64 231.873 249.817 246.244 220.879 257.622C191.941 268.999 167.443 278.314 166.436 278.322C164.015 278.342 164.233 275.014 167.833 256.998C169.495 248.682 170.554 241.322 170.188 240.645C169.574 239.51 156.228 244.125 124.467 256.454C117.651 259.1 112.867 260.483 113.836 259.527C117.46 255.952 196.495 203.425 197.203 204.12C197.609 204.518 196.694 211.811 195.17 220.324C193.647 228.838 192.74 236.136 193.155 236.545C193.571 236.953 216.543 228.796 244.205 218.419C289.456 201.443 295.393 199.634 303.388 200.389C310.174 201.03 313.416 202.423 317.101 206.284ZM406.322 219.244C394.165 217.478 378.856 223.38 371.388 234.226C362.075 247.765 359.682 267.12 357.966 282.973C363.807 269.852 370.586 248.143 380.155 237.388C389.579 225.071 417.351 222.103 406.322 219.244ZM265.048 293.5C273.166 301.723 272.876 301.429 272.876 301.429L271.24 330.747C270.342 346.871 269.323 360.387 268.979 360.782C267.746 362.193 241.299 341.07 233.182 332.191C218.373 315.987 199.319 286.84 202.062 284.583C204.472 282.601 250.823 265.653 251.957 266.34C256.331 268.995 259.436 287.816 265.048 293.5Z" fill="white"/>
</g>
</svg>
